# This file uses centimeters as units for non-parametric coordinates.

mtllib escenario_prueba_002.mtl
g default
v -20.244284 6.749097 0.603115
v -4.974245 6.749097 0.603115
v -20.244284 8.209368 0.603115
v -4.974245 8.209368 0.603115
v -20.244284 8.209368 -1.915943
v -4.974245 8.209368 -1.915943
v -20.244284 6.749097 -1.915943
v -4.974245 6.749097 -1.915943
vt 0.375000 0.000000
vt 0.625000 0.000000
vt 0.375000 0.250000
vt 0.625000 0.250000
vt 0.375000 0.500000
vt 0.625000 0.500000
vt 0.375000 0.750000
vt 0.625000 0.750000
vt 0.375000 1.000000
vt 0.625000 1.000000
vt 0.875000 0.000000
vt 0.875000 0.250000
vt 0.125000 0.000000
vt 0.125000 0.250000
vn 0.000000 0.000000 1.000000
vn 0.000000 0.000000 1.000000
vn 0.000000 0.000000 1.000000
vn 0.000000 0.000000 1.000000
vn 0.000000 1.000000 0.000000
vn 0.000000 1.000000 0.000000
vn 0.000000 1.000000 0.000000
vn 0.000000 1.000000 0.000000
vn 0.000000 0.000000 -1.000000
vn 0.000000 0.000000 -1.000000
vn 0.000000 0.000000 -1.000000
vn 0.000000 0.000000 -1.000000
vn 0.000000 -1.000000 0.000000
vn 0.000000 -1.000000 0.000000
vn 0.000000 -1.000000 0.000000
vn 0.000000 -1.000000 0.000000
vn 1.000000 0.000000 0.000000
vn 1.000000 0.000000 0.000000
vn 1.000000 0.000000 0.000000
vn 1.000000 0.000000 0.000000
vn -1.000000 0.000000 0.000000
vn -1.000000 0.000000 0.000000
vn -1.000000 0.000000 0.000000
vn -1.000000 0.000000 0.000000
s off
g pCube8
usemtl initialShadingGroup
f 1/1/1 2/2/2 4/4/3 3/3/4
f 3/3/5 4/4/6 6/6/7 5/5/8
f 5/5/9 6/6/10 8/8/11 7/7/12
f 7/7/13 8/8/14 2/10/15 1/9/16
f 2/2/17 8/11/18 6/12/19 4/4/20
f 7/13/21 1/1/22 3/3/23 5/14/24
g default
v -15.851066 -1.153647 0.603115
v -9.367463 -1.153647 0.603115
v -15.851066 0.306624 0.603115
v -9.367463 0.306624 0.603115
v -15.851066 0.306624 -1.915943
v -9.367463 0.306624 -1.915943
v -15.851066 -1.153647 -1.915943
v -9.367463 -1.153647 -1.915943
vt 0.375000 0.000000
vt 0.625000 0.000000
vt 0.375000 0.250000
vt 0.625000 0.250000
vt 0.375000 0.500000
vt 0.625000 0.500000
vt 0.375000 0.750000
vt 0.625000 0.750000
vt 0.375000 1.000000
vt 0.625000 1.000000
vt 0.875000 0.000000
vt 0.875000 0.250000
vt 0.125000 0.000000
vt 0.125000 0.250000
vn 0.000000 0.000000 1.000000
vn 0.000000 0.000000 1.000000
vn 0.000000 0.000000 1.000000
vn 0.000000 0.000000 1.000000
vn 0.000000 1.000000 0.000000
vn 0.000000 1.000000 0.000000
vn 0.000000 1.000000 0.000000
vn 0.000000 1.000000 0.000000
vn 0.000000 0.000000 -1.000000
vn 0.000000 0.000000 -1.000000
vn 0.000000 0.000000 -1.000000
vn 0.000000 0.000000 -1.000000
vn 0.000000 -1.000000 0.000000
vn 0.000000 -1.000000 0.000000
vn 0.000000 -1.000000 0.000000
vn 0.000000 -1.000000 0.000000
vn 1.000000 0.000000 0.000000
vn 1.000000 0.000000 0.000000
vn 1.000000 0.000000 0.000000
vn 1.000000 0.000000 0.000000
vn -1.000000 0.000000 0.000000
vn -1.000000 0.000000 0.000000
vn -1.000000 0.000000 0.000000
vn -1.000000 0.000000 0.000000
s off
g pCube2
usemtl initialShadingGroup
f 9/15/25 10/16/26 12/18/27 11/17/28
f 11/17/29 12/18/30 14/20/31 13/19/32
f 13/19/33 14/20/34 16/22/35 15/21/36
f 15/21/37 16/22/38 10/24/39 9/23/40
f 10/16/41 16/25/42 14/26/43 12/18/44
f 15/27/45 9/15/46 11/17/47 13/28/48
g default
v -27.000000 22.412903 -1.387680
v 27.000000 22.412903 -1.387680
v 23.790106 20.593962 -1.387680
v -23.790106 20.593962 -1.387680
v -23.790106 -6.368158 -1.387680
v -27.000000 -8.187098 -1.387680
v -27.000000 -8.187098 1.387680
v -23.790106 -6.368158 1.387680
v -23.790106 20.593962 1.387680
v 23.790106 20.593962 1.387680
v 27.000000 22.412903 1.387680
v -27.000000 22.412903 1.387680
v 27.000000 -8.187098 -1.387680
v 23.790106 -6.368158 -1.387680
v 23.790106 -6.368158 1.387680
v 27.000000 -8.187098 1.387680
vt 0.375000 0.500000
vt 0.625000 0.500000
vt 0.610139 0.514861
vt 0.389861 0.514861
vt 0.389861 0.735139
vt 0.375000 0.750000
vt 0.375000 0.000000
vt 0.389861 0.014861
vt 0.389861 0.235139
vt 0.610139 0.235139
vt 0.625000 0.250000
vt 0.375000 0.250000
vt 0.625000 0.319923
vt 0.375000 0.319923
vt 0.375000 0.430077
vt 0.625000 0.430077
vt 0.625000 0.750000
vt 0.610139 0.735139
vt 0.610139 0.014861
vt 0.625000 0.000000
vt 0.694923 0.000000
vt 0.694923 0.250000
vt 0.805077 0.250000
vt 0.805077 0.000000
vt 0.875000 0.000000
vt 0.875000 0.250000
vt 0.625000 0.819923
vt 0.375000 0.819923
vt 0.375000 0.930077
vt 0.625000 0.930077
vt 0.625000 1.000000
vt 0.375000 1.000000
vt 0.194923 0.000000
vt 0.194923 0.250000
vt 0.305077 0.250000
vt 0.305077 0.000000
vt 0.125000 0.000000
vt 0.125000 0.250000
vn 0.000000 0.000000 -1.000000
vn 0.000000 0.000000 -1.000000
vn 0.000000 0.000000 -1.000000
vn 0.000000 0.000000 -1.000000
vn 0.000000 0.000000 -1.000000
vn 0.000000 0.000000 -1.000000
vn 0.000000 0.000000 1.000000
vn 0.000000 0.000000 1.000000
vn 0.000000 0.000000 1.000000
vn 0.000000 0.000000 1.000000
vn 0.000000 0.000000 1.000000
vn 0.000000 0.000000 1.000000
vn 0.000000 -1.000000 0.000000
vn 0.000000 -1.000000 0.000000
vn 0.000000 -1.000000 0.000000
vn 0.000000 -1.000000 0.000000
vn 0.000000 1.000000 0.000000
vn 0.000000 1.000000 0.000000
vn 0.000000 1.000000 0.000000
vn 0.000000 1.000000 0.000000
vn 0.000000 0.000000 -1.000000
vn 0.000000 0.000000 -1.000000
vn 0.000000 0.000000 1.000000
vn 0.000000 0.000000 1.000000
vn -1.000000 0.000000 0.000000
vn -1.000000 0.000000 0.000000
vn -1.000000 0.000000 0.000000
vn -1.000000 0.000000 0.000000
vn 1.000000 0.000000 0.000000
vn 1.000000 0.000000 0.000000
vn 1.000000 0.000000 0.000000
vn 1.000000 0.000000 0.000000
vn 0.000000 1.000000 0.000000
vn 0.000000 1.000000 0.000000
vn 0.000000 1.000000 0.000000
vn 0.000000 1.000000 0.000000
vn 0.000000 -1.000000 0.000000
vn 0.000000 -1.000000 0.000000
vn 0.000000 -1.000000 0.000000
vn 0.000000 -1.000000 0.000000
vn 1.000000 0.000000 0.000000
vn 1.000000 0.000000 0.000000
vn 1.000000 0.000000 0.000000
vn 1.000000 0.000000 0.000000
vn -1.000000 0.000000 0.000000
vn -1.000000 0.000000 0.000000
vn -1.000000 0.000000 0.000000
vn -1.000000 0.000000 0.000000
s 1
g pCube5
usemtl initialShadingGroup
f 17/29/49 18/30/50 19/31/51 20/32/52 21/33/53 22/34/54
s 2
f 23/35/55 24/36/56 25/37/57 26/38/58 27/39/59 28/40/60
s off
f 26/41/61 25/42/62 20/43/63 19/44/64
f 28/40/65 27/39/66 18/30/67 17/29/68
s 1
f 18/30/50 29/45/69 22/34/54 21/33/53 30/46/70 19/31/51
s 2
f 26/38/58 31/47/71 24/36/56 23/35/55 32/48/72 27/39/59
s off
f 31/49/73 26/50/74 19/51/75 30/52/76
f 32/48/77 29/53/78 18/54/79 27/39/80
f 30/55/81 21/56/82 24/57/83 31/58/84
f 22/34/85 29/45/86 32/59/87 23/60/88
f 21/61/89 20/62/90 25/63/91 24/64/92
f 22/65/93 23/35/94 28/40/95 17/66/96
g default
v -20.244284 6.749097 0.603115
v -4.974245 6.749097 0.603115
v -20.244284 8.209368 0.603115
v -4.974245 8.209368 0.603115
v -20.244284 8.209368 -1.915943
v -4.974245 8.209368 -1.915943
v -20.244284 6.749097 -1.915943
v -4.974245 6.749097 -1.915943
vt 0.375000 0.000000
vt 0.625000 0.000000
vt 0.375000 0.250000
vt 0.625000 0.250000
vt 0.375000 0.500000
vt 0.625000 0.500000
vt 0.375000 0.750000
vt 0.625000 0.750000
vt 0.375000 1.000000
vt 0.625000 1.000000
vt 0.875000 0.000000
vt 0.875000 0.250000
vt 0.125000 0.000000
vt 0.125000 0.250000
vn 0.000000 0.000000 1.000000
vn 0.000000 0.000000 1.000000
vn 0.000000 0.000000 1.000000
vn 0.000000 0.000000 1.000000
vn 0.000000 1.000000 0.000000
vn 0.000000 1.000000 0.000000
vn 0.000000 1.000000 0.000000
vn 0.000000 1.000000 0.000000
vn 0.000000 0.000000 -1.000000
vn 0.000000 0.000000 -1.000000
vn 0.000000 0.000000 -1.000000
vn 0.000000 0.000000 -1.000000
vn 0.000000 -1.000000 0.000000
vn 0.000000 -1.000000 0.000000
vn 0.000000 -1.000000 0.000000
vn 0.000000 -1.000000 0.000000
vn 1.000000 0.000000 0.000000
vn 1.000000 0.000000 0.000000
vn 1.000000 0.000000 0.000000
vn 1.000000 0.000000 0.000000
vn -1.000000 0.000000 0.000000
vn -1.000000 0.000000 0.000000
vn -1.000000 0.000000 0.000000
vn -1.000000 0.000000 0.000000
s off
g pCube6
usemtl initialShadingGroup
f 33/67/97 34/68/98 36/70/99 35/69/100
f 35/69/101 36/70/102 38/72/103 37/71/104
f 37/71/105 38/72/106 40/74/107 39/73/108
f 39/73/109 40/74/110 34/76/111 33/75/112
f 34/68/113 40/77/114 38/78/115 36/70/116
f 39/79/117 33/67/118 35/69/119 37/80/120
g default
v -20.244284 6.749097 0.603115
v -4.974245 6.749097 0.603115
v -20.244284 8.209368 0.603115
v -4.974245 8.209368 0.603115
v -20.244284 8.209368 -1.915943
v -4.974245 8.209368 -1.915943
v -20.244284 6.749097 -1.915943
v -4.974245 6.749097 -1.915943
vt 0.375000 0.000000
vt 0.625000 0.000000
vt 0.375000 0.250000
vt 0.625000 0.250000
vt 0.375000 0.500000
vt 0.625000 0.500000
vt 0.375000 0.750000
vt 0.625000 0.750000
vt 0.375000 1.000000
vt 0.625000 1.000000
vt 0.875000 0.000000
vt 0.875000 0.250000
vt 0.125000 0.000000
vt 0.125000 0.250000
vn 0.000000 0.000000 1.000000
vn 0.000000 0.000000 1.000000
vn 0.000000 0.000000 1.000000
vn 0.000000 0.000000 1.000000
vn 0.000000 1.000000 0.000000
vn 0.000000 1.000000 0.000000
vn 0.000000 1.000000 0.000000
vn 0.000000 1.000000 0.000000
vn 0.000000 0.000000 -1.000000
vn 0.000000 0.000000 -1.000000
vn 0.000000 0.000000 -1.000000
vn 0.000000 0.000000 -1.000000
vn 0.000000 -1.000000 0.000000
vn 0.000000 -1.000000 0.000000
vn 0.000000 -1.000000 0.000000
vn 0.000000 -1.000000 0.000000
vn 1.000000 0.000000 0.000000
vn 1.000000 0.000000 0.000000
vn 1.000000 0.000000 0.000000
vn 1.000000 0.000000 0.000000
vn -1.000000 0.000000 0.000000
vn -1.000000 0.000000 0.000000
vn -1.000000 0.000000 0.000000
vn -1.000000 0.000000 0.000000
s off
g pCube7
usemtl initialShadingGroup
f 41/81/121 42/82/122 44/84/123 43/83/124
f 43/83/125 44/84/126 46/86/127 45/85/128
f 45/85/129 46/86/130 48/88/131 47/87/132
f 47/87/133 48/88/134 42/90/135 41/89/136
f 42/82/137 48/91/138 46/92/139 44/84/140
f 47/93/141 41/81/142 43/83/143 45/94/144
g default
v 4.152876 -1.427137 0.603115
v 19.422915 -1.427137 0.603115
v 4.152876 0.033134 0.603115
v 19.422915 0.033134 0.603115
v 4.152876 0.033134 -1.915943
v 19.422915 0.033134 -1.915943
v 4.152876 -1.427137 -1.915943
v 19.422915 -1.427137 -1.915943
vt 0.375000 0.000000
vt 0.625000 0.000000
vt 0.375000 0.250000
vt 0.625000 0.250000
vt 0.375000 0.500000
vt 0.625000 0.500000
vt 0.375000 0.750000
vt 0.625000 0.750000
vt 0.375000 1.000000
vt 0.625000 1.000000
vt 0.875000 0.000000
vt 0.875000 0.250000
vt 0.125000 0.000000
vt 0.125000 0.250000
vn 0.000000 0.000000 1.000000
vn 0.000000 0.000000 1.000000
vn 0.000000 0.000000 1.000000
vn 0.000000 0.000000 1.000000
vn 0.000000 1.000000 0.000000
vn 0.000000 1.000000 0.000000
vn 0.000000 1.000000 0.000000
vn 0.000000 1.000000 0.000000
vn 0.000000 0.000000 -1.000000
vn 0.000000 0.000000 -1.000000
vn 0.000000 0.000000 -1.000000
vn 0.000000 0.000000 -1.000000
vn 0.000000 -1.000000 0.000000
vn 0.000000 -1.000000 0.000000
vn 0.000000 -1.000000 0.000000
vn 0.000000 -1.000000 0.000000
vn 1.000000 0.000000 0.000000
vn 1.000000 0.000000 0.000000
vn 1.000000 0.000000 0.000000
vn 1.000000 0.000000 0.000000
vn -1.000000 0.000000 0.000000
vn -1.000000 0.000000 0.000000
vn -1.000000 0.000000 0.000000
vn -1.000000 0.000000 0.000000
s off
g pCube11
usemtl initialShadingGroup
f 49/95/145 50/96/146 52/98/147 51/97/148
f 51/97/149 52/98/150 54/100/151 53/99/152
f 53/99/153 54/100/154 56/102/155 55/101/156
f 55/101/157 56/102/158 50/104/159 49/103/160
f 50/96/161 56/105/162 54/106/163 52/98/164
f 55/107/165 49/95/166 51/97/167 53/108/168
g default
v 6.888664 10.612715 0.603115
v 13.372267 10.612715 0.603115
v 6.888664 12.072986 0.603115
v 13.372267 12.072986 0.603115
v 6.888664 12.072986 -1.915943
v 13.372267 12.072986 -1.915943
v 6.888664 10.612715 -1.915943
v 13.372267 10.612715 -1.915943
vt 0.375000 0.000000
vt 0.625000 0.000000
vt 0.375000 0.250000
vt 0.625000 0.250000
vt 0.375000 0.500000
vt 0.625000 0.500000
vt 0.375000 0.750000
vt 0.625000 0.750000
vt 0.375000 1.000000
vt 0.625000 1.000000
vt 0.875000 0.000000
vt 0.875000 0.250000
vt 0.125000 0.000000
vt 0.125000 0.250000
vn 0.000000 0.000000 1.000000
vn 0.000000 0.000000 1.000000
vn 0.000000 0.000000 1.000000
vn 0.000000 0.000000 1.000000
vn 0.000000 1.000000 0.000000
vn 0.000000 1.000000 0.000000
vn 0.000000 1.000000 0.000000
vn 0.000000 1.000000 0.000000
vn 0.000000 0.000000 -1.000000
vn 0.000000 0.000000 -1.000000
vn 0.000000 0.000000 -1.000000
vn 0.000000 0.000000 -1.000000
vn 0.000000 -1.000000 0.000000
vn 0.000000 -1.000000 0.000000
vn 0.000000 -1.000000 0.000000
vn 0.000000 -1.000000 0.000000
vn 1.000000 0.000000 0.000000
vn 1.000000 0.000000 0.000000
vn 1.000000 0.000000 0.000000
vn 1.000000 0.000000 0.000000
vn -1.000000 0.000000 0.000000
vn -1.000000 0.000000 0.000000
vn -1.000000 0.000000 0.000000
vn -1.000000 0.000000 0.000000
s off
g pCube10
usemtl initialShadingGroup
f 57/109/169 58/110/170 60/112/171 59/111/172
f 59/111/173 60/112/174 62/114/175 61/113/176
f 61/113/177 62/114/178 64/116/179 63/115/180
f 63/115/181 64/116/182 58/118/183 57/117/184
f 58/110/185 64/119/186 62/120/187 60/112/188
f 63/121/189 57/109/190 59/111/191 61/122/192
g default
v 2.037404 6.749097 0.603115
v 17.307443 6.749097 0.603115
v 2.037404 8.209368 0.603115
v 17.307443 8.209368 0.603115
v 2.037404 8.209368 -1.915943
v 17.307443 8.209368 -1.915943
v 2.037404 6.749097 -1.915943
v 17.307443 6.749097 -1.915943
vt 0.375000 0.000000
vt 0.625000 0.000000
vt 0.375000 0.250000
vt 0.625000 0.250000
vt 0.375000 0.500000
vt 0.625000 0.500000
vt 0.375000 0.750000
vt 0.625000 0.750000
vt 0.375000 1.000000
vt 0.625000 1.000000
vt 0.875000 0.000000
vt 0.875000 0.250000
vt 0.125000 0.000000
vt 0.125000 0.250000
vn 0.000000 0.000000 1.000000
vn 0.000000 0.000000 1.000000
vn 0.000000 0.000000 1.000000
vn 0.000000 0.000000 1.000000
vn 0.000000 1.000000 0.000000
vn 0.000000 1.000000 0.000000
vn 0.000000 1.000000 0.000000
vn 0.000000 1.000000 0.000000
vn 0.000000 0.000000 -1.000000
vn 0.000000 0.000000 -1.000000
vn 0.000000 0.000000 -1.000000
vn 0.000000 0.000000 -1.000000
vn 0.000000 -1.000000 0.000000
vn 0.000000 -1.000000 0.000000
vn 0.000000 -1.000000 0.000000
vn 0.000000 -1.000000 0.000000
vn 1.000000 0.000000 0.000000
vn 1.000000 0.000000 0.000000
vn 1.000000 0.000000 0.000000
vn 1.000000 0.000000 0.000000
vn -1.000000 0.000000 0.000000
vn -1.000000 0.000000 0.000000
vn -1.000000 0.000000 0.000000
vn -1.000000 0.000000 0.000000
s off
g pCube9
usemtl initialShadingGroup
f 65/123/193 66/124/194 68/126/195 67/125/196
f 67/125/197 68/126/198 70/128/199 69/127/200
f 69/127/201 70/128/202 72/130/203 71/129/204
f 71/129/205 72/130/206 66/132/207 65/131/208
f 66/124/209 72/133/210 70/134/211 68/126/212
f 71/135/213 65/123/214 67/125/215 69/136/216
